<?xml version="1.0" encoding="UTF-8"?>
<!DOCTYPE svg PUBLIC "-//W3C//DTD SVG 1.1//EN" "http://www.w3.org/Graphics/SVG/1.1/DTD/svg11.dtd">
<!-- Creator: CorelDRAW -->
<svg xmlns="http://www.w3.org/2000/svg" xml:space="preserve" width="10mm" height="10mm" version="1.1" style="shape-rendering:geometricPrecision; text-rendering:geometricPrecision; image-rendering:optimizeQuality; fill-rule:evenodd; clip-rule:evenodd"
viewBox="0 0 1000 1000"
 xmlns:xlink="http://www.w3.org/1999/xlink"
 xmlns:xodm="http://www.corel.com/coreldraw/odm/2003">
 <defs>
  <style type="text/css">
   <![CDATA[
    .fil1 {fill:none;fill-rule:nonzero}
    .fil0 {fill:black;fill-rule:nonzero}
   ]]>
  </style>
   <clipPath id="id0" style="clip-rule:nonzero">
    <path d="M43.03 59.11l897.93 0 0 897.79 -897.93 0 0 -897.79zm0 0z"/>
   </clipPath>
 </defs>
 <g id="Layer_x0020_1">
  <metadata id="CorelCorpID_0Corel-Layer"/>
  <g>
  </g>
  <g style="clip-path:url(#id0)">
   <g id="_2238663740112">
    <path class="fil0" d="M664.93 691.9c13.37,16.82 -2.61,35.28 -10.33,42.31 -9.79,9.37 -22.6,16.95 -38.17,22.88 -7.86,2.89 -14.2,4.68 -20.12,5.51l-3.58 0.41c-15.3,1.65 -32.53,0.14 -52.78,-4.27 -39.83,-8.54 -77.04,-32.8 -113.55,-73.86 -5.52,-5.38 -47.13,-46.99 -73.73,-105.7 -26.87,-59.53 -30.04,-117.82 -30.45,-124.16 -6.48,-55.95 0.27,-99.77 19.98,-135.19 10.88,-19.43 22.32,-34.17 34.59,-44.64 4.27,-3.86 9.92,-7.45 17.64,-11.44 14.19,-7.17 28.11,-11.72 41.06,-12.96 8.27,-0.82 35.97,-1.51 39.55,20.12l3.58 37.35c1.66,16.54 5.24,58.43 5.24,58.43 2.76,26.59 -0.41,40.65 -26.32,44.23 -1.93,0.14 -3.86,-0.14 -6.34,-0.14 -5.79,-0.55 -11.02,-0.82 -15.71,-0.82l-18.74 0.14 0.41 18.74c0.42,21.08 7.86,75.24 23.98,110.93 14.75,32.93 49.06,74.83 67.11,91.36l13.92 12.68 12.54 -14.19c2.89,-3.17 6.06,-7.31 7.85,-9.65 3.17,-4.13 4.69,-6.2 5.93,-7.3 6.61,-5.65 12.82,-8.82 18.88,-9.37 11.99,-1.24 20.95,7.44 31.42,18.88l66.14 69.72zm276.03 -183.96c0,247.77 -201.06,448.69 -448.97,448.69 -248.05,0 -448.96,-200.92 -448.96,-448.69 0,-247.64 200.91,-448.56 448.96,-448.56 247.91,0 448.97,200.92 448.97,448.56zm-68.36 0c0,-210.02 -170.32,-380.34 -380.61,-380.34 -210.29,0 -380.75,170.32 -380.75,380.34 0,210.15 170.46,380.47 380.75,380.47 210.29,0 380.61,-170.32 380.61,-380.47zm0 0z"/>
   </g>
  </g>
  <path class="fil1" d="M43.03 59.11l897.93 0 0 897.79 -897.93 0 0 -897.79zm0 0z"/>
 </g>
</svg>
