<?xml version="1.0" encoding="UTF-8"?>
<!DOCTYPE svg PUBLIC "-//W3C//DTD SVG 1.1//EN" "http://www.w3.org/Graphics/SVG/1.1/DTD/svg11.dtd">
<!-- Creator: CorelDRAW -->
<svg xmlns="http://www.w3.org/2000/svg" xml:space="preserve" width="10mm" height="10mm" version="1.1" style="shape-rendering:geometricPrecision; text-rendering:geometricPrecision; image-rendering:optimizeQuality; fill-rule:evenodd; clip-rule:evenodd"
viewBox="0 0 1000 1000"
 xmlns:xlink="http://www.w3.org/1999/xlink"
 xmlns:xodm="http://www.corel.com/coreldraw/odm/2003">
 <defs>
  <style type="text/css">
   <![CDATA[
    .fil0 {fill:black;fill-rule:nonzero}
   ]]>
  </style>
 </defs>
 <g id="Layer_x0020_1">
  <metadata id="CorelCorpID_0Corel-Layer"/>
  <path class="fil0" d="M767.07 232.94c-73.42,-73.57 -171.2,-114.02 -274.98,-114.02 -103.96,0 -201.73,40.45 -275.15,114.02 -73.58,73.42 -114.02,171.2 -114.02,275.15 0,103.79 40.44,201.56 114.02,274.98 73.42,73.58 171.19,114.02 275.15,114.02 103.78,0 201.56,-40.44 274.98,-114.02 73.57,-73.42 114.02,-171.19 114.02,-274.98 0,-103.95 -40.45,-201.73 -114.02,-275.15zm-621.11 275.15c0,-43.37 8.13,-84.95 22.74,-123.12l139.85 0c-6.18,39.15 -9.58,80.57 -9.58,123.12 0,40.93 3.08,81.04 8.93,119.05l-140.83 0c-13.63,-37.2 -21.11,-77.3 -21.11,-119.05zm196.05 0c0,-42.88 3.57,-84.3 10.23,-123.12l118.24 0 0 242.17 -119.05 0c-6.18,-37.68 -9.42,-77.8 -9.42,-119.05zm251.75 -250.95c11.86,25.34 21.6,53.92 29.24,84.79l-109.47 0 0 -175.9c29.23,10.55 57.66,42.55 80.23,91.11zm-123.28 -91.11l0 175.9 -109.47 0c7.64,-30.87 17.38,-59.45 29.23,-84.79 22.75,-48.56 51.17,-80.56 80.24,-91.11zm0 504.16l0 179.8c-29.07,-10.56 -57.49,-42.56 -80.24,-91.12 -12.34,-26.47 -22.41,-56.36 -30.04,-88.68l110.28 0zm43.05 179.8l0 -179.8 110.44 0c-7.79,32.32 -17.86,62.21 -30.21,88.68 -22.57,48.56 -51,80.56 -80.23,91.12zm0 -222.85l0 -242.17 118.4 0c6.66,38.82 10.07,80.24 10.07,123.12 0,41.25 -3.25,81.37 -9.42,119.05l-119.05 0zm161.93 -242.17l140.01 0c14.62,38.17 22.58,79.75 22.58,123.12 0,41.75 -7.48,81.85 -21.11,119.05l-140.83 0c5.85,-38.01 8.93,-78.12 8.93,-119.05 0,-42.55 -3.25,-83.97 -9.58,-123.12zm120.04 -43.04l-128.32 0c-8.61,-37.68 -20.15,-72.44 -34.43,-102.98 -11.05,-23.71 -23.4,-44.02 -36.72,-61.06 85.6,27.12 156.91,86.56 199.47,164.04zm-407.37 -164.04c-13.47,17.04 -25.82,37.35 -36.87,61.06 -14.28,30.54 -25.82,65.3 -34.43,102.98l-128.32 0c42.56,-77.48 113.86,-136.92 199.62,-164.04zm-201.73 492.3l129.62 0c8.6,39.14 20.46,75.2 35.24,106.87 11.05,23.71 23.4,44.02 36.87,61.07 -87.05,-27.45 -159.49,-88.52 -201.73,-167.94zm409.63 167.94c13.32,-17.05 25.67,-37.36 36.72,-61.07 14.78,-31.67 26.64,-67.73 35.24,-106.87l129.62 0c-42.24,79.42 -114.51,140.49 -201.58,167.94zm0 0z"/>
 </g>
</svg>
