<?xml version="1.0" encoding="UTF-8"?>
<!DOCTYPE svg PUBLIC "-//W3C//DTD SVG 1.1//EN" "http://www.w3.org/Graphics/SVG/1.1/DTD/svg11.dtd">
<!-- Creator: CorelDRAW -->
<svg xmlns="http://www.w3.org/2000/svg" xml:space="preserve" width="10mm" height="10mm" version="1.1" style="shape-rendering:geometricPrecision; text-rendering:geometricPrecision; image-rendering:optimizeQuality; fill-rule:evenodd; clip-rule:evenodd"
viewBox="0 0 1000 1000"
 xmlns:xlink="http://www.w3.org/1999/xlink"
 xmlns:xodm="http://www.corel.com/coreldraw/odm/2003">
 <defs>
  <style type="text/css">
   <![CDATA[
    .fil0 {fill:#545454;fill-rule:nonzero}
   ]]>
  </style>
 </defs>
 <g id="Layer_x0020_1">
  <metadata id="CorelCorpID_0Corel-Layer"/>
  <path class="fil0" d="M692.85 364.81c11.49,11.48 11.49,30.01 0,41.28 -11.48,11.49 -30.01,11.49 -41.28,0l-159.72 -159.83 -159.83 159.83c-5.64,5.64 -13.22,8.57 -20.59,8.57 -7.47,0 -15.06,-2.93 -20.7,-8.57 -11.48,-11.49 -11.48,-30.01 0,-41.28l201.12 -201.01 201 201.01zm-201.22 -98.6l0.76 0 -3.9 0 -138.15 138.15 0 154.52c0,0 0,15.17 13.76,17.55l86.68 0 0 -106.3c0,0 1.09,-14.41 16.47,-16.14l49.42 0c15.38,1.73 16.57,16.14 16.57,16.14l0 106.41 86.58 0c13.65,-2.49 13.87,-17.44 13.87,-17.44l0 -154.52 -138.16 -138.27 -3.9 0 0 -0.1zm338.84 172.39c-4.12,25.68 -13.44,67.18 -34.67,119.73 -23.96,58.95 -57.98,119.63 -101,179.99 -53.74,75.53 -122.01,151.05 -202.63,224.41l-0.21 0.21 -0.11 -0.21c-80.62,-73.36 -148.88,-148.88 -202.63,-224.41 -43.02,-60.36 -77.04,-121.04 -100.99,-179.99 -21.45,-52.55 -30.56,-94.05 -34.68,-119.73 -4.33,-27.63 -3.68,-43.23 -3.68,-43.45 0,-46.05 8.89,-90.81 26.87,-133.06 17.34,-40.64 41.83,-77.27 73.36,-108.8 31.54,-31.53 67.94,-56.02 108.79,-73.36 42.27,-17.88 87.02,-26.86 133.07,-26.86 46.16,0 91.13,8.98 133.17,26.86 40.63,17.34 77.26,41.83 108.79,73.36 31.32,31.32 56.03,67.95 73.36,108.8 17.88,42.25 26.87,87.01 26.87,133.06l0 0.22c0,2.16 0.32,17.34 -3.68,43.23zm-73.25 -44.54c0,-35.86 -6.94,-70.54 -20.81,-103.16 -13.44,-31.53 -32.5,-59.91 -56.78,-84.3 -24.37,-24.26 -52.77,-43.34 -84.3,-56.78 -32.73,-13.87 -67.29,-20.91 -103.16,-20.91 -35.75,0 -70.43,7.04 -103.15,20.91 -31.75,13.23 -60.14,32.3 -84.42,56.78 -24.37,24.39 -43.45,52.56 -56.88,84.3 -13.76,32.62 -20.8,67.3 -20.8,103.16 0,35.76 7.04,70.44 20.8,103.16 13.43,31.53 32.51,59.93 56.88,84.2 24.28,24.37 52.67,43.45 84.2,56.88 32.72,13.76 67.4,20.81 103.16,20.81 35.86,0 70.54,-7.05 103.16,-20.81 31.53,-13.43 59.92,-32.51 84.3,-56.88 24.27,-24.27 43.34,-52.67 56.78,-84.2 14.08,-32.72 21.02,-67.4 21.02,-103.16zm0 0z"/>
 </g>
</svg>
