<?xml version="1.0" encoding="UTF-8"?>
<!DOCTYPE svg PUBLIC "-//W3C//DTD SVG 1.1//EN" "http://www.w3.org/Graphics/SVG/1.1/DTD/svg11.dtd">
<!-- Creator: CorelDRAW -->
<svg xmlns="http://www.w3.org/2000/svg" xml:space="preserve" width="10mm" height="10mm" version="1.1" style="shape-rendering:geometricPrecision; text-rendering:geometricPrecision; image-rendering:optimizeQuality; fill-rule:evenodd; clip-rule:evenodd"
viewBox="0 0 1000 1000"
 xmlns:xlink="http://www.w3.org/1999/xlink"
 xmlns:xodm="http://www.corel.com/coreldraw/odm/2003">
 <defs>
  <style type="text/css">
   <![CDATA[
    .fil1 {fill:none;fill-rule:nonzero}
    .fil0 {fill:black;fill-rule:nonzero}
   ]]>
  </style>
    <clipPath id="id0" style="clip-rule:nonzero">
     <path d="M43.03 59.11l897.93 0 0 897.79 -897.93 0 0 -897.79zm0 0z"/>
    </clipPath>
 </defs>
 <g id="Layer_x0020_1">
  <metadata id="CorelCorpID_0Corel-Layer"/>
  <g id="_2238666662352">
   <path class="fil0" d="M798.88 364.49c0,-0.69 0,-1.38 -0.28,-2.07 -0.55,-12.27 -3.3,-23.84 -8.4,-35 -5.1,-11.16 -12.13,-20.95 -20.95,-29.36 -8.82,-8.4 -18.88,-14.88 -30.18,-19.43 -11.3,-4.54 -23.15,-6.89 -35.28,-6.89l-423.6 0c-12.27,0 -23.98,2.35 -35.28,6.89 -11.3,4.55 -21.36,11.03 -30.32,19.43 -8.82,8.41 -15.71,18.2 -20.81,29.36 -5.1,11.16 -7.85,22.73 -8.54,35 0,0.69 -0.14,1.38 -0.14,2.07 -0.14,0.69 -0.27,1.79 -0.27,2.61l0 281.81c0,12.68 2.48,24.81 7.3,36.52 4.82,11.71 11.71,21.91 20.67,30.87 8.96,8.96 19.29,15.85 30.87,20.67 11.71,4.82 23.84,7.3 36.52,7.3l423.6 0c12.55,0 24.81,-2.48 36.39,-7.3 11.71,-4.82 22.04,-11.71 31,-20.67 8.96,-8.96 15.85,-19.16 20.67,-30.87 4.82,-11.71 7.31,-23.84 7.31,-36.52l0 -281.81c0,-0.82 -0.28,-1.79 -0.28,-2.61zm-518.69 -45.48l423.6 0c10.62,0 20.26,3.31 28.81,9.79 8.54,6.47 14.33,14.74 17.22,25.08l-257.83 150.48 -257.83 -150.48c2.89,-10.34 8.68,-18.61 17.22,-25.08 8.55,-6.48 18.06,-9.79 28.81,-9.79zm423.6 378l-423.6 0c-6.34,0 -12.54,-1.24 -18.47,-3.59 -5.79,-2.48 -11.02,-5.92 -15.57,-10.47 -4.55,-4.55 -7.99,-9.78 -10.34,-15.57 -2.48,-5.93 -3.72,-12.13 -3.72,-18.47l0 -241.57 248.05 144.7c7.99,4.68 15.85,4.68 23.84,0l247.91 -144.7 0 241.57c0,6.34 -1.24,12.54 -3.72,18.47 -2.48,5.79 -5.93,11.02 -10.34,15.57 -4.55,4.55 -9.78,7.99 -15.71,10.47 -5.78,2.35 -11.99,3.59 -18.33,3.59zm0 0z"/>
   <g>
   </g>
   <g style="clip-path:url(#id0)">
    <g>
     <path class="fil0" d="M491.99 59.11c-29.49,0 -58.7,2.9 -87.64,8.55 -28.8,5.78 -56.92,14.33 -84.2,25.63 -27.15,11.3 -53.06,25.08 -77.58,41.48 -24.53,16.4 -47.13,35 -68.08,55.81 -20.81,20.81 -39.41,43.54 -55.81,68.07 -16.4,24.53 -30.18,50.3 -41.48,77.59 -11.3,27.28 -19.84,55.26 -25.49,84.19 -5.79,28.94 -8.68,58.16 -8.68,87.65 0,29.49 2.89,58.56 8.68,87.5 5.65,28.94 14.19,57.05 25.49,84.2 11.3,27.29 25.08,53.19 41.48,77.72 16.4,24.39 35,47.13 55.81,67.94 20.95,20.81 43.55,39.55 68.08,55.81 24.52,16.4 50.43,30.32 77.58,41.48 27.28,11.3 55.4,19.84 84.2,25.63 28.94,5.79 58.15,8.54 87.64,8.54 29.49,0 58.7,-2.75 87.51,-8.54 28.93,-5.79 57.05,-14.33 84.33,-25.63 27.15,-11.16 53.06,-25.08 77.59,-41.48 24.52,-16.26 47.12,-35 67.93,-55.81 20.95,-20.81 39.55,-43.55 55.95,-67.94 16.26,-24.53 30.18,-50.43 41.48,-77.72 11.3,-27.15 19.71,-55.26 25.49,-84.2 5.79,-28.94 8.69,-58.01 8.69,-87.5 -0.14,-29.49 -3.04,-58.71 -8.82,-87.65 -5.65,-28.8 -14.2,-56.91 -25.5,-84.19 -11.3,-27.15 -25.22,-53.06 -41.48,-77.45 -16.4,-24.53 -35,-47.27 -55.95,-68.07 -20.8,-20.81 -43.4,-39.42 -67.93,-55.81 -24.53,-16.4 -50.3,-30.18 -77.59,-41.48 -27.28,-11.3 -55.26,-19.85 -84.19,-25.64 -28.94,-5.78 -58.02,-8.68 -87.51,-8.68zm0 850.53c-26.46,0 -52.5,-2.48 -78.41,-7.72 -25.91,-5.1 -50.99,-12.68 -75.38,-22.74 -24.25,-10.19 -47.4,-22.46 -69.45,-37.2 -21.91,-14.61 -42.17,-31.28 -60.77,-49.89 -18.74,-18.74 -35.28,-39 -50.03,-60.91 -14.6,-21.91 -27.01,-45.06 -37.07,-69.45 -10.05,-24.39 -17.77,-49.47 -22.87,-75.38 -5.1,-25.77 -7.72,-51.95 -7.72,-78.27 0,-26.46 2.62,-52.51 7.72,-78.41 5.1,-25.91 12.82,-50.99 22.87,-75.38 10.06,-24.39 22.47,-47.54 37.07,-69.45 14.75,-21.92 31.29,-42.17 50.03,-60.91 18.6,-18.61 38.86,-35.28 60.77,-49.89 22.05,-14.61 45.2,-27.01 69.45,-37.07 24.39,-10.2 49.47,-17.77 75.38,-22.87 25.91,-5.24 51.95,-7.72 78.41,-7.72 26.32,0 52.5,2.48 78.41,7.72 25.77,5.1 50.99,12.67 75.24,22.87 24.39,10.06 47.54,22.46 69.45,37.07 21.92,14.61 42.31,31.28 60.91,49.89 18.61,18.74 35.28,38.99 49.89,60.91 14.74,21.91 27.15,45.06 37.21,69.45 10.06,24.39 17.63,49.47 22.87,75.38 5.1,25.9 7.72,51.95 7.72,78.41 0,26.32 -2.62,52.36 -7.86,78.27 -5.1,25.91 -12.81,50.99 -22.87,75.38 -10.06,24.25 -22.46,47.4 -37.21,69.31 -14.61,21.92 -31.28,42.17 -49.88,60.91 -18.61,18.61 -38.86,35.28 -60.78,49.89 -22.04,14.74 -45.06,27.01 -69.45,37.21 -24.39,10.06 -49.47,17.63 -75.38,22.87 -25.77,5.1 -51.95,7.72 -78.27,7.72zm0 0z"/>
    </g>
   </g>
   <path class="fil1" d="M43.03 59.11l897.93 0 0 897.79 -897.93 0 0 -897.79zm0 0z"/>
  </g>
 </g>
</svg>
